<svg viewBox="0 0 32 32" fill="none" xmlns="http://www.w3.org/2000/svg">
  <defs>
    <linearGradient id="razorGradient" x1="0%" y1="0%" x2="100%" y2="100%">
      <stop offset="0%" style="stop-color:#1a1a1a;stop-opacity:1" />
      <stop offset="100%" style="stop-color:#d4af37;stop-opacity:1" />
    </linearGradient>
  </defs>

  <!-- Elegant razor blade -->
  <path d="M10 6 L10 22 L22 22 L22 6 C22 4.89543 21.1046 4 20 4 L12 4 C10.8954 4 10 4.89543 10 6 Z" fill="url(#razorGradient)" stroke="#d4af37" stroke-width="0.5" />

  <!-- Handle -->
  <path d="M14 22 L18 22 L18 26 C18 27.1046 17.1046 28 16 28 C14.8954 28 14 27.1046 14 26 Z" fill="#2a2a2a" stroke="#d4af37" stroke-width="0.3" />

  <!-- Blade edge -->
  <line x1="10" y1="8" x2="22" y2="8" stroke="#d4af37" stroke-width="1" />

  <!-- Subtle beard trim lines -->
  <line x1="12" y1="12" x2="16" y2="12" stroke="#d4af37" stroke-width="0.3" opacity="0.7" />
  <line x1="12" y1="16" x2="18" y2="16" stroke="#d4af37" stroke-width="0.3" opacity="0.7" />
  <line x1="14" y1="20" x2="20" y2="20" stroke="#d4af37" stroke-width="0.3" opacity="0.7" />
</svg>
