<svg viewBox="0 0 32 32" fill="none" xmlns="http://www.w3.org/2000/svg">
  <defs>
    <linearGradient id="razorGradient" x1="0%" y1="0%" x2="100%" y2="100%">
      <stop offset="0%" style="stop-color:#1a1a1a;stop-opacity:1" />
      <stop offset="100%" style="stop-color:#f59e0b;stop-opacity:1" />
    </linearGradient>
  </defs>
  
  <!-- Razor blade with beard shape -->
  <path d="M8 4 L8 12 L8 28 C8 29.1046 8.89543 30 10 30 C11.1046 30 12 28 C12 28 12 29.1046 12 30 C12.8954 30 14 28 C14 28 14 29.1046 14 30 C14.8954 30 16 28 C16 28 16 29.1046 16 30 C16.8954 30 18 28 L18 12 L18 4 C18 2.89543 17.1046 2 16 2 C14.8954 2 14 2 C13.1046 2 12 2.89543 C11.8954 2 10 2.89543 C9.10457 2 8 2.89543 C7.89543 2 6 2.89543 C5.10457 2 4 2.89543 C3.89543 2 2 4 L2 12 C2 13.1046 2.89543 14 2 14 C2.89543 14 3.10457 14 4 L2 28 C2 29.1046 2.89543 30 2 30 C2.89543 30 3.10457 30 4 L4 28 Z" fill="url(#razorGradient)" />
  
  <!-- Beard shape -->
  <path d="M8 6 C9.10457 6 10 6.89543 C10.8954 6.89543 12 6 C13.1046 6 14 6.89543 C14.8954 6.89543 16 6 C16.8954 6 18 6.89543 C18.8954 6.89543 20 6 C20 6 20 6.89543 C20 7.10457 20 8 C19.1046 8 18 8.89543 C16.8954 8.89543 16 8 C15.1046 8 14 8.89543 C12.8954 8.89543 12 8 C11.1046 8 10 8.89543 C8.89543 8.89543 8 8 L8 10 Z" fill="#f59e0b" opacity="0.8" />
  
  <!-- Precision lines -->
  <line x1="6" y1="16" x2="10" y2="16" stroke="#f59e0b" stroke-width="0.5" opacity="0.6" />
  <line x1="14" y1="16" x2="18" y2="16" stroke="#f59e0b" stroke-width="0.5" opacity="0.6" />
</svg>
